<mxfile host="app.diagrams.net" modified="2023-11-03T16:19:31.356Z" agent="Mozilla/5.0 (Windows NT 10.0; Win64; x64) AppleWebKit/537.36 (KHTML, like Gecko) Chrome/118.0.0.0 Safari/537.36" version="22.0.8" etag="qgt0U7W86mxgC_ra44YY" type="github">
  <diagram name="第 1 页" id="_Za5BC0m-HuaRFZVXyjK">
    <mxGraphModel>
      <root>
        <mxCell id="0" />
        <mxCell id="1" parent="0" />
      </root>
    </mxGraphModel>
  </diagram>
</mxfile>
